<?xml version="1.0" encoding="UTF-8" standalone="no"?>
<!-- Created with Inkscape (http://www.inkscape.org/) -->

<svg
   xmlns:osb="http://www.openswatchbook.org/uri/2009/osb"
   xmlns:dc="http://purl.org/dc/elements/1.1/"
   xmlns:cc="http://creativecommons.org/ns#"
   xmlns:rdf="http://www.w3.org/1999/02/22-rdf-syntax-ns#"
   xmlns:svg="http://www.w3.org/2000/svg"
   xmlns="http://www.w3.org/2000/svg"
   xmlns:xlink="http://www.w3.org/1999/xlink"
   xmlns:sodipodi="http://sodipodi.sourceforge.net/DTD/sodipodi-0.dtd"
   xmlns:inkscape="http://www.inkscape.org/namespaces/inkscape"
   id="svg2985"
   version="1.1"
   inkscape:version="0.48.4 r9939"
   width="127.9982"
   height="56.666138"
   sodipodi:docname="HC-05-Bluetooth.svg">
  <metadata
     id="metadata2991">
    <rdf:RDF>
      <cc:Work
         rdf:about="">
        <dc:format>image/svg+xml</dc:format>
        <dc:type
           rdf:resource="http://purl.org/dc/dcmitype/StillImage" />
        <dc:title />
      </cc:Work>
    </rdf:RDF>
  </metadata>
  <defs
     id="defs2989">
    <linearGradient
       id="linearGradient5770"
       osb:paint="solid">
      <stop
         style="stop-color:#000000;stop-opacity:1;"
         offset="0"
         id="stop5772" />
    </linearGradient>
    <linearGradient
       id="linearGradient4320"
       osb:paint="solid">
      <stop
         style="stop-color:#000000;stop-opacity:1;"
         offset="0"
         id="stop4322" />
    </linearGradient>
    <linearGradient
       inkscape:collect="always"
       xlink:href="#linearGradient5770"
       id="linearGradient5774"
       x1="29"
       y1="21.967499"
       x2="67.75"
       y2="21.967499"
       gradientUnits="userSpaceOnUse"
       gradientTransform="matrix(0.73256358,0,0,1.0181629,18.119485,1.4180114)" />
    <linearGradient
       inkscape:collect="always"
       xlink:href="#linearGradient5770-9"
       id="linearGradient5774-4"
       x1="29"
       y1="21.967499"
       x2="67.75"
       y2="21.967499"
       gradientUnits="userSpaceOnUse"
       gradientTransform="matrix(0.73225806,0,0,1.0604651,18.264516,0.85923263)" />
    <linearGradient
       id="linearGradient5770-9"
       osb:paint="solid">
      <stop
         style="stop-color:#000000;stop-opacity:1;"
         offset="0"
         id="stop5772-4" />
    </linearGradient>
    <linearGradient
       y2="21.967499"
       x2="67.75"
       y1="21.967499"
       x1="29"
       gradientTransform="matrix(0.5550702,0,0,1.0181629,57.968765,1.5380255)"
       gradientUnits="userSpaceOnUse"
       id="linearGradient5790"
       xlink:href="#linearGradient5770-9"
       inkscape:collect="always" />
  </defs>
  <sodipodi:namedview
     pagecolor="#ffffff"
     bordercolor="#666666"
     borderopacity="1"
     objecttolerance="10"
     gridtolerance="10"
     guidetolerance="10"
     inkscape:pageopacity="0"
     inkscape:pageshadow="2"
     inkscape:window-width="1920"
     inkscape:window-height="1058"
     id="namedview2987"
     showgrid="false"
     inkscape:zoom="8"
     inkscape:cx="45.019409"
     inkscape:cy="19.672835"
     inkscape:window-x="-8"
     inkscape:window-y="-8"
     inkscape:window-maximized="1"
     inkscape:current-layer="svg2985"
     borderlayer="false"
     fit-margin-top="0"
     fit-margin-left="0"
     fit-margin-right="0"
     fit-margin-bottom="0" />
  <rect
     style="fill:#0a73b1;fill-opacity:1"
     id="rect3336"
     width="127.9982"
     height="56.666138"
     x="0"
     y="0" />
  <g
     inkscape:groupmode="layer"
     id="layer1"
     inkscape:label="Layer"
     transform="translate(-0.78028543,-2.6183611)" />
  <text
     xml:space="preserve"
     style="font-size:6.29823494px;font-style:normal;font-variant:normal;font-weight:normal;font-stretch:normal;text-align:end;line-height:125%;letter-spacing:0px;word-spacing:0px;text-anchor:end;fill:#000000;fill-opacity:1;stroke:none;font-family:OCR A Std;-inkscape-font-specification:OCR A Std"
     x="114.04149"
     y="7.5495892"
     id="text3020"
     sodipodi:linespacing="125%"
     transform="scale(1.0207752,0.9796476)"><tspan
       sodipodi:role="line"
       x="114.04149"
       y="7.5495892"
       style="font-size:5.03858805px;font-style:normal;font-variant:normal;font-weight:normal;font-stretch:normal;text-align:end;text-anchor:end;fill:#ffffff;font-family:OCRA;-inkscape-font-specification:OCRA"
       id="tspan3032">Key</tspan></text>
  <text
     xml:space="preserve"
     style="font-size:6.29823494px;font-style:normal;font-variant:normal;font-weight:normal;font-stretch:normal;line-height:125%;letter-spacing:0px;word-spacing:0px;fill:#000000;fill-opacity:1;stroke:none;font-family:OCR A Std;-inkscape-font-specification:OCR A Std"
     x="102.81985"
     y="17.042736"
     id="text3064"
     sodipodi:linespacing="125%"
     transform="scale(1.0207752,0.9796476)"><tspan
       sodipodi:role="line"
       id="tspan3066"
       x="102.81985"
       y="17.042736"
       style="font-size:5.03858805px;font-style:normal;font-variant:normal;font-weight:normal;font-stretch:normal;fill:#ffffff;font-family:OCRA;-inkscape-font-specification:OCRA">VCC</tspan></text>
  <text
     xml:space="preserve"
     style="font-size:6.29823494px;font-style:normal;font-variant:normal;font-weight:normal;font-stretch:normal;line-height:125%;letter-spacing:0px;word-spacing:0px;fill:#000000;fill-opacity:1;stroke:none;font-family:OCR A Std;-inkscape-font-specification:OCR A Std"
     x="102.86803"
     y="25.994062"
     id="text3064-1"
     sodipodi:linespacing="125%"
     transform="scale(1.0207752,0.9796476)"><tspan
       sodipodi:role="line"
       id="tspan3066-7"
       x="102.86803"
       y="25.994062"
       style="font-size:5.03858805px;font-style:normal;font-variant:normal;font-weight:normal;font-stretch:normal;fill:#ffffff;font-family:OCRA;-inkscape-font-specification:OCRA">GND</tspan></text>
  <text
     xml:space="preserve"
     style="font-size:6.29823494px;font-style:normal;font-variant:normal;font-weight:normal;font-stretch:normal;line-height:125%;letter-spacing:0px;word-spacing:0px;fill:#000000;fill-opacity:1;stroke:none;font-family:OCR A Std;-inkscape-font-specification:OCR A Std"
     x="102.74319"
     y="35.606403"
     id="text3064-1-4"
     sodipodi:linespacing="125%"
     transform="scale(1.0207752,0.9796476)"><tspan
       sodipodi:role="line"
       id="tspan3066-7-0"
       x="102.74319"
       y="35.606403"
       style="font-size:5.03858805px;font-style:normal;font-variant:normal;font-weight:normal;font-stretch:normal;fill:#ffffff;font-family:OCRA;-inkscape-font-specification:OCRA">TXD</tspan></text>
  <text
     xml:space="preserve"
     style="font-size:6.29823494px;font-style:normal;font-variant:normal;font-weight:normal;font-stretch:normal;line-height:125%;letter-spacing:0px;word-spacing:0px;fill:#000000;fill-opacity:1;stroke:none;font-family:OCR A Std;-inkscape-font-specification:OCR A Std"
     x="102.74322"
     y="45.099545"
     id="text3064-1-4-9"
     sodipodi:linespacing="125%"
     transform="scale(1.0207752,0.9796476)"><tspan
       sodipodi:role="line"
       id="tspan3066-7-0-4"
       x="102.74322"
       y="45.099545"
       style="font-size:5.03858805px;font-style:normal;font-variant:normal;font-weight:normal;font-stretch:normal;fill:#ffffff;font-family:OCRA;-inkscape-font-specification:OCRA">RXD</tspan></text>
  <text
     xml:space="preserve"
     style="font-size:6.04284048px;font-style:normal;font-variant:normal;font-weight:normal;font-stretch:normal;line-height:125%;letter-spacing:0px;word-spacing:0px;fill:#000000;fill-opacity:1;stroke:none;font-family:OCR A Std;-inkscape-font-specification:OCR A Std"
     x="101.44648"
     y="51.649471"
     id="text3064-1-4-9-8"
     sodipodi:linespacing="125%"
     transform="scale(0.97938255,1.0210515)"><tspan
       sodipodi:role="line"
       id="tspan3066-7-0-4-8"
       x="101.44648"
       y="51.649471"
       style="font-size:4.83427238px;font-style:normal;font-variant:normal;font-weight:normal;font-stretch:normal;fill:#ffffff;font-family:OCRA;-inkscape-font-specification:OCRA">State</tspan></text>
  <circle
     cx="70"
     cy="170"
     id="GND"
     r="27.5"
     d="m 97.5,170 c 0,15.18783 -12.312169,27.5 -27.5,27.5 -15.187831,0 -27.5,-12.31217 -27.5,-27.5 0,-15.18783 12.312169,-27.5 27.5,-27.5 15.187831,0 27.5,12.31217 27.5,27.5 z"
     sodipodi:cx="70"
     sodipodi:cy="170"
     sodipodi:rx="27.5"
     sodipodi:ry="27.5"
     style="fill:#ffd5d5;stroke:#1f0000;stroke-width:20;stroke-opacity:1"
     transform="matrix(0.13181157,0,0,0.12524398,112.8341,2.5780038)" />
  <circle
     cx="70"
     cy="170"
     id="VCC"
     r="27.5"
     d="m 97.5,170 c 0,15.18783 -12.312169,27.5 -27.5,27.5 -15.187831,0 -27.5,-12.31217 -27.5,-27.5 0,-15.18783 12.312169,-27.5 27.5,-27.5 15.187831,0 27.5,12.31217 27.5,27.5 z"
     sodipodi:cx="70"
     sodipodi:cy="170"
     sodipodi:rx="27.5"
     sodipodi:ry="27.5"
     style="fill:#ffd5d5;stroke:#1f0000;stroke-width:20;stroke-opacity:1"
     transform="matrix(0.13181157,0,0,0.12524398,112.96153,-6.5437151)" />
  <circle
     cx="70"
     cy="170"
     id="Key"
     r="27.5"
     d="m 97.5,170 c 0,15.18783 -12.312169,27.5 -27.5,27.5 -15.187831,0 -27.5,-12.31217 -27.5,-27.5 0,-15.18783 12.312169,-27.5 27.5,-27.5 15.187831,0 27.5,12.31217 27.5,27.5 z"
     sodipodi:cx="70"
     sodipodi:cy="170"
     sodipodi:rx="27.5"
     sodipodi:ry="27.5"
     style="fill:#ffd5d5;stroke:#1f0000;stroke-width:20;stroke-opacity:1"
     transform="matrix(0.13181157,0,0,0.12524398,112.85396,-15.788957)" />
  <circle
     cx="70"
     cy="170"
     id="TXD"
     r="27.5"
     d="m 97.5,170 c 0,15.18783 -12.312169,27.5 -27.5,27.5 -15.187831,0 -27.5,-12.31217 -27.5,-27.5 0,-15.18783 12.312169,-27.5 27.5,-27.5 15.187831,0 27.5,12.31217 27.5,27.5 z"
     sodipodi:cx="70"
     sodipodi:cy="170"
     sodipodi:rx="27.5"
     sodipodi:ry="27.5"
     style="fill:#ffd5d5;stroke:#1f0000;stroke-width:20;stroke-opacity:1"
     transform="matrix(0.13181157,0,0,0.12524398,112.83346,11.684974)" />
  <circle
     cx="70"
     cy="170"
     id="RXD"
     r="27.5"
     d="m 97.5,170 c 0,15.18783 -12.312169,27.5 -27.5,27.5 -15.187831,0 -27.5,-12.31217 -27.5,-27.5 0,-15.18783 12.312169,-27.5 27.5,-27.5 15.187831,0 27.5,12.31217 27.5,27.5 z"
     sodipodi:cx="70"
     sodipodi:cy="170"
     sodipodi:rx="27.5"
     sodipodi:ry="27.5"
     style="fill:#ffd5d5;stroke:#1f0000;stroke-width:20;stroke-opacity:1"
     transform="matrix(0.13181157,0,0,0.12524398,112.90839,20.618028)">
    <title
       id="title3355">RXD</title>
  </circle>
  <circle
     cx="70"
     cy="170"
     id="State"
     r="27.5"
     d="m 97.5,170 c 0,15.18783 -12.312169,27.5 -27.5,27.5 -15.187831,0 -27.5,-12.31217 -27.5,-27.5 0,-15.18783 12.312169,-27.5 27.5,-27.5 15.187831,0 27.5,12.31217 27.5,27.5 z"
     sodipodi:cx="70"
     sodipodi:cy="170"
     sodipodi:rx="27.5"
     sodipodi:ry="27.5"
     style="fill:#ffd5d5;stroke:#1f0000;stroke-width:20;stroke-opacity:1"
     transform="matrix(0.13181157,0,0,0.12524398,113.01916,29.833773)">
    <title
       id="title3357">State</title>
  </circle>
  <rect
     style="fill:#28220b;fill-opacity:0"
     id="rect3450"
     width="28.761995"
     height="27.843184"
     x="38.863621"
     y="9.742898" />
  <path
     style="fill:#28220b;fill-opacity:0"
     d="m 39.512252,23.801269 0,-13.261515 13.943314,0 13.943315,0 0,13.261515 0,13.261517 -13.943315,0 -13.943314,0 0,-13.261517 z m 3.056687,3.993755 c 0.223275,-0.305925 0.251024,-0.728113 0.06928,-1.054024 -0.08381,-0.150308 -0.08381,-0.249513 0,-0.299228 0.190359,-0.112909 0.149891,-0.693311 -0.06928,-0.993612 -0.166917,-0.228707 -0.309543,-0.266733 -1.000417,-0.266733 l -0.805748,0 0,1.440165 0,1.440165 0.805748,0 c 0.690874,0 0.8335,-0.03803 1.000417,-0.266733 z m 2.695712,0.0867 c 0,-0.100011 -0.111157,-0.180021 -0.250104,-0.180021 -0.233432,0 -0.250104,-0.08 -0.250104,-1.200137 l 0,-1.200137 -0.50021,0 c -0.374322,0 -0.500208,0.04813 -0.500208,0.191256 0,0.105192 0.112547,0.219502 0.250104,0.254025 0.223422,0.05607 0.250104,0.163701 0.250104,1.008882 0,0.866102 -0.02114,0.946111 -0.250104,0.946111 -0.138947,0 -0.250104,0.08001 -0.250104,0.180021 0,0.140017 0.166735,0.180021 0.750313,0.180021 0.583576,0 0.750313,-0.04001 0.750313,-0.180021 l 0,0 z m 3.001251,-0.853281 c 0,-0.926922 -0.01987,-1.006931 -0.250104,-1.006931 -0.219647,0 -0.250104,0.08 -0.250104,0.656993 0,0.602167 -0.02999,0.671875 -0.359302,0.83531 -0.428876,0.212844 -0.516064,0.1525 -0.516064,-0.357174 0,-0.633151 -0.145163,-1.135129 -0.328262,-1.135129 -0.129324,0 -0.171946,0.205809 -0.171946,0.83028 0,1.208306 0.0022,1.210952 1.013561,1.196179 l 0.862221,-0.01259 0,-1.006933 z m 2.751148,0.853281 c 0,-0.129388 -0.13781,-0.180021 -0.489982,-0.180021 -0.553888,0 -0.885592,-0.09472 -0.885592,-0.252867 0,-0.05894 0.309504,-0.107173 0.687787,-0.107173 l 0.687787,0 0,-0.440602 c 0,-0.599598 -0.291605,-0.879549 -0.916163,-0.879549 -0.735727,0 -0.959619,0.250748 -0.959619,1.074722 0,0.372612 0.06753,0.742286 0.150062,0.821494 0.08495,0.08153 0.491871,0.144017 0.937892,0.144017 0.616923,0 0.787828,-0.03905 0.787828,-0.180021 z m 2.72819,-0.210023 c 0.04403,-0.367203 -0.214776,-0.453537 -0.471083,-0.157152 -0.266083,0.307694 -0.506377,0.08079 -0.506377,-0.478157 0,-0.498512 0.01651,-0.521145 0.406419,-0.557225 0.260477,-0.0241 0.40642,-0.102251 0.40642,-0.217628 0,-0.115376 -0.145943,-0.193524 -0.40642,-0.217628 -0.336607,-0.03114 -0.406419,-0.08784 -0.406419,-0.330038 0,-0.21242 -0.06843,-0.292429 -0.250104,-0.292429 -0.172182,0 -0.250105,0.08 -0.250105,0.256799 0,0.14124 -0.09848,0.330261 -0.218841,0.420049 -0.208421,0.155474 -0.208421,0.17102 0,0.326494 0.155928,0.116318 0.218841,0.333678 0.218841,0.756087 0,0.745224 0.159309,0.90117 0.874714,0.856244 0.510896,-0.03208 0.567073,-0.06612 0.602955,-0.365416 z m 2.724682,0.08766 c 0.266423,-0.390227 0.175481,-1.352573 -0.149363,-1.580532 -0.345921,-0.242753 -1.135451,-0.196987 -1.426892,0.08271 -0.308238,0.295819 -0.338937,1.145028 -0.05544,1.533475 0.156315,0.214178 0.315898,0.266731 0.809957,0.266731 0.519589,0 0.647397,-0.04703 0.821735,-0.302386 z m 2.696934,0.103764 c 0.166629,-0.144722 0.228688,-0.370849 0.228688,-0.83329 0,-0.746687 -0.264448,-1.008321 -1.019167,-1.008321 -0.6549,0 -1.02906,0.462437 -0.946706,1.170067 0.03264,0.280497 0.129434,0.591033 0.215086,0.690079 0.216495,0.250351 1.226673,0.23805 1.522099,-0.01853 l 0,0 z m 2.829773,0.0546 c 0.192408,-0.184656 0.194851,-0.576065 0.0036,-0.576065 -0.08055,0 -0.245832,0.0863 -0.367276,0.191777 -0.32064,0.278489 -0.486667,0.108291 -0.486667,-0.498895 0,-0.507808 0.01708,-0.532978 0.361777,-0.532978 0.198979,0 0.392057,-0.07573 0.429066,-0.168288 0.09199,-0.230057 -0.02013,-0.311767 -0.427831,-0.311767 -0.262689,0 -0.355206,-0.0645 -0.385578,-0.268805 -0.0593,-0.398895 -0.477642,-0.433955 -0.477642,-0.04002 0,0.194509 -0.06944,0.308834 -0.187578,0.308834 -0.104211,0 -0.187578,0.106679 -0.187578,0.240027 0,0.133349 0.08336,0.240027 0.187578,0.240027 0.14314,0 0.187578,0.150686 0.187578,0.636074 0,0.749274 0.141951,0.924105 0.750312,0.924105 0.247604,0 0.517716,-0.0648 0.600251,-0.144017 z m 1.525636,-0.472815 c 0,-0.644291 0.200747,-0.931571 0.656524,-0.939521 0.179294,-0.0031 0.218841,0.102846 0.218841,0.586436 0,0.702339 0.08993,0.969926 0.326009,0.969926 0.133156,0 0.1742,-0.208612 0.1742,-0.885408 0,-1.05076 -0.130599,-1.21791 -0.876563,-1.121886 -0.497379,0.06402 -0.499011,0.0629 -0.499011,-0.344394 0,-0.328618 -0.04897,-0.408627 -0.250104,-0.408627 -0.235606,0 -0.250105,0.08 -0.250105,1.380157 0,1.300148 0.01449,1.380158 0.250105,1.380158 0.217662,0 0.250104,-0.08 0.250104,-0.616841 z M 41.710892,22.30109 c 0.02876,0 0.0523,-0.459053 0.0523,-1.020117 l 0,-1.020117 0.875365,0 0.875364,0 0,0.945414 c 0,0.989926 0.144513,1.292241 0.546885,1.144057 0.178436,-0.06571 0.203428,-0.368225 0.203428,-2.462353 l 0,-2.387433 -0.299251,0 c -0.381159,0 -0.451062,0.187509 -0.451062,1.209952 l 0,0.830281 -0.870307,0 -0.870308,0 -0.03631,-0.990113 c -0.03547,-0.966816 -0.04368,-0.990113 -0.348951,-0.990113 l -0.31263,0 -0.03404,2.331537 c -0.03484,2.385855 0.0086,2.62369 0.450688,2.467751 0.09159,-0.03231 0.190077,-0.05875 0.218842,-0.05875 z m 6.982465,0.04716 c 0.108793,-0.04006 0.197806,-0.202084 0.197806,-0.360042 0,-0.270621 -0.04278,-0.287194 -0.741381,-0.287194 -0.865611,0 -0.940702,-0.05514 -1.436013,-1.054481 l -0.364138,-0.734686 0.426664,-0.815612 0.426664,-0.815611 0.812839,-0.06 c 0.77589,-0.05728 0.814638,-0.07501 0.852408,-0.390045 l 0.03957,-0.330037 -0.986924,0 c -0.862132,0 -1.020204,0.03414 -1.250102,0.270031 -0.370603,0.380251 -1.030726,1.765321 -1.030844,2.16291 -1.5e-4,0.486706 0.9508,2.23594 1.285891,2.36536 0.321036,0.123991 1.477284,0.156316 1.767561,0.04941 l 0,0 z m 9.030002,0.0011 c 0.448463,-0.1155 0.546827,-0.553114 0.544872,-2.424114 -0.0025,-2.413743 0.03721,-2.355152 -1.627231,-2.399586 -1.796809,-0.04797 -1.747333,-0.117303 -1.747333,2.44853 0,2.458357 -0.0066,2.447791 1.531889,2.445347 0.567423,-9e-4 1.151435,-0.03249 1.297803,-0.07017 l 0,2e-6 z m 4.868376,-0.09853 c 0.209708,-0.147166 0.242744,-0.319976 0.242744,-1.269821 0,-1.321696 -0.09969,-1.440164 -1.211898,-1.440164 l -0.726411,0 0,-0.660076 0,-0.660076 0.860054,0 c 0.903632,0 1.215547,-0.153423 1.067032,-0.52485 -0.06517,-0.162971 -0.292824,-0.195232 -1.377731,-0.195232 l -1.299668,0 0,1.380158 0,1.380158 0.937891,0 0.937891,0 0,0.720082 0,0.720082 -0.56094,0 c -0.308517,0 -0.818012,-0.06598 -1.132209,-0.146634 -0.483167,-0.124022 -0.589202,-0.119394 -0.687548,0.03 -0.171526,0.260562 -0.08824,0.393504 0.388948,0.620926 0.552296,0.263212 2.209633,0.292608 2.561845,0.04544 l 0,3e-6 z m -9.511325,-2.289937 0,-0.360042 -1.156732,-0.0345 -1.156732,-0.03451 0,0.344543 c 0,0.189497 0.03954,0.382489 0.08786,0.42887 0.04833,0.04639 0.568857,0.06888 1.156732,0.05 l 1.068866,-0.03433 0,-0.360041 z"
     id="path3452"
     inkscape:connector-curvature="0" />
  <rect
     style="fill:#222b00;fill-opacity:0"
     id="rect3454"
     width="21.634024"
     height="27.843184"
     x="73.878227"
     y="9.6228848" />
  <path
     style="fill:#222b00;fill-opacity:0"
     d="m 73.901594,23.921284 0,-13.38153 10.566906,0 10.566907,0 0,13.38153 0,13.381529 -10.566907,0 -10.566906,0 0,-13.381529 z"
     id="path3456"
     inkscape:connector-curvature="0" />
  <rect
     style="fill:#000000;fill-opacity:0"
     id="rect3494"
     width="28.636944"
     height="28.203224"
     x="38.863621"
     y="9.5028706" />
  <path
     style="fill:#000000;fill-opacity:0"
     d="m 39.46063,23.800569 0,-13.321523 13.943315,0 13.943315,0 0,13.321523 0,13.321523 -13.943315,0 -13.943315,0 0,-13.321523 z m 2.963307,4.140469 c 0.240907,-0.161938 0.267448,-0.28985 0.264204,-1.273315 -0.0046,-1.386801 -0.131602,-1.547003 -1.226677,-1.547003 l -0.750313,0 0,1.500171 0,1.500172 0.722488,0 c 0.439824,0 0.827265,-0.07044 0.990298,-0.180025 l 0,0 z m 2.851618,-0.06 c 0,-0.09901 -0.124623,-0.197029 -0.276937,-0.217815 -0.261198,-0.03565 -0.278966,-0.103851 -0.31263,-1.200138 l -0.0357,-1.162343 -0.437683,0 c -0.500539,0 -0.631445,0.333632 -0.156315,0.398393 0.264777,0.03609 0.281367,0.09448 0.281367,0.990112 0,0.862108 -0.02286,0.951763 -0.242724,0.951763 -0.133499,0 -0.277502,0.054 -0.320011,0.120013 -0.164241,0.255043 0.107702,0.370224 0.79261,0.335712 0.529458,-0.02668 0.708017,-0.08107 0.708017,-0.215697 z m 2.321686,0.115791 c 0.166735,-0.08564 0.241883,-0.08564 0.241883,0 0,0.06833 0.0844,0.124236 0.187578,0.124236 0.151921,0 0.187578,-0.192568 0.187578,-1.013033 0,-0.557169 -0.05345,-1.044738 -0.118777,-1.083485 -0.178725,-0.106008 -0.381432,0.343193 -0.381432,0.845258 0,0.465982 -0.251822,0.76033 -0.656524,0.767388 -0.186014,0.0033 -0.21884,-0.111273 -0.21884,-0.763431 0,-0.547514 -0.05022,-0.785745 -0.175352,-0.831828 -0.277924,-0.102351 -0.324857,0.0263 -0.324857,0.890423 0,0.577728 0.05662,0.865855 0.19651,1.000114 0.225386,0.216305 0.709312,0.245624 1.062233,0.06436 l 0,0 z m 3.430713,-0.115791 c 0,-0.131056 -0.170072,-0.190141 -0.625261,-0.217225 -0.903546,-0.05376 -1.024809,-0.26283 -0.152446,-0.26283 0.666255,0 0.715645,-0.02 0.794552,-0.321723 0.125187,-0.478686 -0.184482,-0.916738 -0.74238,-1.050157 -0.39038,-0.09336 -0.523398,-0.07162 -0.808738,0.132165 -0.281552,0.201078 -0.348108,0.351323 -0.379089,0.85576 -0.05362,0.872861 0.230635,1.128567 1.200371,1.079849 0.533814,-0.02682 0.712991,-0.08106 0.712991,-0.215839 z m 2.617162,0.05143 c 0.272802,-0.26181 0.24561,-0.531488 -0.05359,-0.531488 -0.137558,0 -0.250105,0.05776 -0.250105,0.12836 0,0.0706 -0.126616,0.111104 -0.281368,0.09002 -0.240109,-0.03273 -0.286954,-0.121942 -0.319481,-0.608416 l -0.03812,-0.570066 0.453703,0 c 0.364525,0 0.445556,-0.04128 0.412247,-0.210023 -0.02709,-0.137258 -0.179234,-0.222862 -0.439117,-0.247079 -0.299056,-0.02786 -0.40733,-0.102261 -0.436658,-0.300034 -0.04963,-0.334708 -0.243063,-0.337385 -0.415343,-0.0057 -0.07349,0.141477 -0.208111,0.34336 -0.299146,0.44863 -0.139247,0.161025 -0.133511,0.203188 0.03615,0.265668 0.145683,0.05365 0.201662,0.229861 0.201662,0.634792 0,0.740268 0.262219,1.093987 0.810998,1.093987 0.231912,0 0.510088,-0.08486 0.618169,-0.188593 l 0,0 z m 2.669728,0.0018 c 0.227079,-0.152644 0.27758,-0.300861 0.276015,-0.810093 -0.001,-0.342797 -0.04326,-0.68269 -0.09378,-0.755318 -0.285638,-0.410547 -1.181492,-0.495347 -1.611844,-0.152576 -0.249614,0.198815 -0.221806,1.409053 0.03873,1.685338 0.257455,0.273024 1.007122,0.290621 1.390892,0.03264 z m 2.800389,-0.0118 c 0.283196,-0.245961 0.327401,-1.493571 0.06046,-1.70619 -0.430353,-0.342771 -1.326207,-0.257971 -1.611844,0.152576 -0.05053,0.07263 -0.09274,0.412521 -0.09379,0.755318 -0.0016,0.509231 0.04894,0.657448 0.276015,0.810093 0.364129,0.24477 1.080871,0.238595 1.369164,-0.0118 l 0,1e-6 z m 2.909061,-0.06653 c 0.250354,-0.343032 0.05279,-0.57685 -0.305806,-0.361925 -0.485913,0.291237 -0.623837,0.19107 -0.623837,-0.453051 l 0,-0.600069 0.437684,0 c 0.290742,0 0.437682,-0.05613 0.437682,-0.167181 0,-0.181973 -0.262237,-0.312874 -0.626792,-0.312874 -0.144533,0 -0.246156,-0.101207 -0.271139,-0.270031 -0.0495,-0.334476 -0.395867,-0.357305 -0.455217,-0.03 -0.02394,0.132015 -0.137257,0.310873 -0.251816,0.397465 -0.193796,0.14648 -0.193062,0.168282 0.01055,0.313264 0.158277,0.112703 0.218841,0.324165 0.218841,0.764096 0,0.725147 0.215199,0.985456 0.81468,0.985456 0.293212,0 0.480608,-0.08077 0.615171,-0.265143 l -5e-6,-4e-6 z m 1.446348,-0.391847 c 0,-0.603544 0.0295,-0.671632 0.362578,-0.836934 0.477964,-0.237208 0.610939,-0.08095 0.661615,0.777483 0.02874,0.486964 0.08717,0.656438 0.22633,0.656438 0.150584,0 0.185851,-0.174711 0.178826,-0.885914 -0.01143,-1.157353 -0.29973,-1.404305 -1.210507,-1.036898 -0.183838,0.07416 -0.218842,0.02225 -0.218842,-0.324605 0,-0.487409 -0.101572,-0.620998 -0.332387,-0.437155 -0.120342,0.09585 -0.167821,0.480358 -0.167821,1.359114 0,1.241813 0.03458,1.385465 0.333473,1.385465 0.11864,0 0.166735,-0.189507 0.166735,-0.656994 z M 41.760714,22.170568 c 0.04175,-0.10441 0.0759,-0.563463 0.0759,-1.020116 l 0,-0.830281 0.875365,0 0.875365,0 0,1.028088 0,1.028087 0.343894,-0.03797 0.343893,-0.03797 0.03391,-2.293467 c 0.03555,-2.404527 -0.02149,-2.679259 -0.51826,-2.496312 -0.165511,0.06096 -0.203429,0.262667 -0.203429,1.082194 l 0,1.007276 -0.875365,0 -0.875365,0 0,-0.847985 c 0,-0.892312 -0.140067,-1.312262 -0.437683,-1.312262 -0.09833,0 -0.237031,0.104462 -0.30823,0.232138 -0.137875,0.247242 -0.184579,4.170884 -0.05356,4.498589 0.04175,0.104411 0.204549,0.189835 0.361778,0.189835 0.15723,0 0.32003,-0.08543 0.361777,-0.189835 z m 7.183564,-0.09582 c 0.06404,-0.321675 -0.189913,-0.430492 -1.009566,-0.432592 l -0.717249,-0.0019 -0.376957,-0.716659 c -0.207325,-0.394164 -0.376956,-0.827753 -0.376956,-0.963533 0,-0.353888 0.700098,-1.636018 0.941975,-1.725097 0.112173,-0.04131 0.482481,-0.07511 0.822907,-0.07511 0.665074,0 0.8987,-0.207497 0.609788,-0.54159 -0.192901,-0.223065 -1.426481,-0.239733 -1.874462,-0.02533 -0.455403,0.217959 -1.241588,1.693822 -1.246567,2.340116 -0.0044,0.574809 0.709391,2.083065 1.088085,2.299049 0.121554,0.06933 0.642449,0.113039 1.157543,0.09714 0.803928,-0.02482 0.942897,-0.06086 0.981459,-0.25456 l 0,0 z m 9.077664,0.09706 c 0.163562,-0.156973 0.19651,-0.538144 0.19651,-2.273456 0,-2.524895 0.0439,-2.458514 -1.625677,-2.458514 -1.673073,0 -1.625678,-0.07298 -1.625678,2.50309 0,1.496213 0.04462,2.172265 0.150062,2.273456 0.240665,0.230969 2.656297,0.193899 2.904783,-0.04457 l 0,0 z m 4.626929,0 c 0.147295,-0.14136 0.196511,-0.439791 0.196511,-1.191565 0,-1.254567 -0.103228,-1.380158 -1.134402,-1.380158 l -0.74138,0 0,-0.714825 0,-0.714824 0.905303,-0.03526 c 0.77037,-0.03 0.911991,-0.06889 0.950194,-0.260906 0.06965,-0.350084 -0.200086,-0.430608 -1.449078,-0.432592 l -1.156732,-0.0019 0,1.440165 0,1.440164 0.937891,0 0.937891,0 0,0.669924 0,0.669924 -0.844102,-0.0622 c -0.464257,-0.03422 -1.012922,-0.07915 -1.219259,-0.09986 -0.305426,-0.03064 -0.382389,0.01112 -0.414069,0.224702 -0.06324,0.426346 0.492418,0.627381 1.749447,0.632946 0.824873,0.0036 1.132426,-0.04045 1.281785,-0.183787 l 0,0 z m -9.580896,-2.241685 -0.03919,-0.390045 -1.049314,0 c -1.104152,0 -1.402111,0.141936 -1.225452,0.583756 0.06472,0.161855 0.278233,0.196333 1.21582,0.196333 l 1.137318,0 -0.03919,-0.390044 z"
     id="path4264"
     inkscape:connector-curvature="0" />
  <rect
     style="fill:#000000;fill-opacity:0"
     id="rect4270"
     width="25.635691"
     height="51.965939"
     x="0.22250508"
     y="0.98189688" />
  <path
     style="fill:#000000;fill-opacity:0"
     d="m 1.1946703,27.939017 0,-22.0825243 12.3801627,0 12.380164,0 0,0.7800892 0,0.7800891 1.572085,0 c 1.841899,0 1.929375,-0.043141 1.929375,-0.9515372 l 0,-0.6086411 0.937891,0 0.937892,0 0,0.7800892 0,0.7800891 1.63461,0 c 1.911085,0 1.991902,-0.038606 1.991902,-0.9515372 l 0,-0.6086411 0.62526,0 c 0.472419,0 0.625261,0.044005 0.625261,0.1800206 0,0.099011 0.0844,0.1800205 0.187578,0.1800205 0.116716,0 0.187579,0.1133464 0.187579,0.3000343 0,0.1650189 0.05627,0.3000343 0.125052,0.3000343 0.06878,0 0.125052,0.1350155 0.125052,0.3000343 l 0,0.3000343 1.561722,0 c 1.884147,0 2.064791,-0.086331 2.064791,-0.9867816 l 0,-0.5733967 0.625261,0 c 0.472418,0 0.62526,0.044005 0.62526,0.1800206 0,0.099011 0.0844,0.1800205 0.187578,0.1800205 0.131721,0 0.187579,0.1276337 0.187579,0.4286205 0,0.7031708 0.16525,0.7715167 1.86542,0.7715167 1.824772,0 2.011196,-0.091468 2.011196,-0.9867816 l 0,-0.5733967 0.625261,0 c 0.472419,0 0.625261,0.044005 0.625261,0.1800206 0,0.099011 0.05627,0.1800205 0.125052,0.1800205 0.06878,0 0.125052,0.2160248 0.125052,0.4800549 0,0.3467064 0.0521,0.4800549 0.187579,0.4800549 0.103167,0 0.187578,0.054006 0.187578,0.1200137 0,0.073644 0.607395,0.1200137 1.572084,0.1200137 1.8419,0 1.929376,-0.043141 1.929376,-0.9515372 l 0,-0.6086411 0.623782,0 0.623783,0 0.07998,0.4800549 c 0.04399,0.2640302 0.129067,0.4800548 0.189056,0.4800548 0.05999,0 0.109069,0.057864 0.109069,0.1285863 0,0.3832161 0.3612,0.4714823 1.929377,0.4714823 0.964688,0 1.572084,-0.046369 1.572084,-0.1200137 0,-0.066008 0.0844,-0.1200137 0.187578,-0.1200137 0.144,0 0.187579,-0.1533508 0.187579,-0.6600755 l 0,-0.6600754 0.62526,0 0.625261,0 0,0.5870582 c 0,0.5261053 0.03247,0.5948767 0.312631,0.6623619 0.171946,0.041417 0.312629,0.1282811 0.312629,0.1930311 0,0.070675 0.624165,0.1177271 1.561723,0.1177271 1.884147,0 2.064791,-0.086331 2.064791,-0.9867816 l 0,-0.5733967 0.548149,0 c 0.589672,0 0.696834,0.1327269 0.700665,0.867813 0.0013,0.2488381 0.07698,0.3458823 0.314337,0.403055 0.171947,0.041417 0.31263,0.1234552 0.31263,0.1823071 0,0.058852 0.647145,0.1070032 1.4381,0.1070032 0.875366,0 1.438101,-0.046961 1.438101,-0.1200137 0,-0.066008 0.140682,-0.1200137 0.312629,-0.1200137 0.295579,0 0.312631,-0.036004 0.312631,-0.6600755 l 0,-0.6600754 0.610676,0 c 0.657762,0 0.759226,0.1146025 0.76319,0.862012 0.0011,0.2156559 0.08428,0.3471024 0.251812,0.398132 0.137557,0.0419 0.250104,0.1265487 0.250104,0.1881081 0,0.063007 0.655864,0.1119262 1.500626,0.1119262 0.825345,0 1.500626,-0.048152 1.500626,-0.1070032 0,-0.058852 0.140683,-0.14089 0.31263,-0.1823071 0.281128,-0.067715 0.31263,-0.1355418 0.31263,-0.6730859 l 0,-0.5977821 0.625261,0 0.625261,0 0,0.5977821 c 0,0.5375441 0.0315,0.6053705 0.31263,0.6730859 0.171947,0.041417 0.312631,0.1234552 0.312631,0.1823071 0,0.058852 0.675281,0.1070032 1.500625,0.1070032 0.844763,0 1.500627,-0.048918 1.500627,-0.1119262 0,-0.061559 0.112547,-0.1462081 0.250104,-0.1881081 0.16753,-0.05103 0.250668,-0.1824761 0.251811,-0.398132 0.0036,-0.6742325 0.12579,-0.862012 0.561028,-0.862012 0.435237,0 0.557451,0.1877795 0.561028,0.862012 0.0011,0.2156559 0.08428,0.3471024 0.25181,0.398132 0.137558,0.0419 0.250106,0.1265487 0.250106,0.1881081 0,0.063007 0.655862,0.1119262 1.500625,0.1119262 0.844762,0 1.500626,-0.048918 1.500626,-0.1119262 0,-0.061559 0.112546,-0.1462081 0.250104,-0.1881081 0.16753,-0.05103 0.250668,-0.1824761 0.251811,-0.398132 0.004,-0.7474095 0.105429,-0.862012 0.763191,-0.862012 l 0.610676,0 0,0.5977821 c 0,0.5375441 0.0315,0.6053705 0.312631,0.6730859 0.171946,0.041417 0.31263,0.1234552 0.31263,0.1823071 0,0.058852 0.675282,0.1070032 1.500626,0.1070032 0.844762,0 1.500625,-0.048918 1.500625,-0.1119262 0,-0.061559 0.112547,-0.1462081 0.250105,-0.1881081 0.16753,-0.05103 0.250668,-0.1824761 0.251811,-0.398132 0.0038,-0.7241832 0.11354,-0.862012 0.68608,-0.862012 0.573573,0 0.682275,0.1374945 0.68608,0.867813 0.0013,0.2488381 0.07698,0.3458823 0.314337,0.403055 0.171947,0.041417 0.312631,0.1234552 0.312631,0.1823071 0,0.058852 0.647144,0.1070032 1.438099,0.1070032 0.875366,0 1.4381,-0.046961 1.4381,-0.1200137 0,-0.066008 0.0844,-0.1200137 0.187578,-0.1200137 0.135472,0 0.187578,-0.1333485 0.187578,-0.4800549 0,-0.2640301 0.05627,-0.4800549 0.125053,-0.4800549 0.06878,0 0.125051,-0.081009 0.125051,-0.1800205 0,-0.1507865 0.264,-0.1800206 1.625679,-0.1800206 1.361678,0 1.625678,0.029234 1.625678,0.1800206 0,0.099011 0.05627,0.1800205 0.125051,0.1800205 0.07225,0 0.125053,0.3800435 0.125053,0.9001029 l 0,0.9001029 -0.625261,0 c -0.472419,0 -0.62526,0.044005 -0.62526,0.1800206 0,0.099011 -0.08441,0.1800206 -0.187579,0.1800206 -0.103168,0 -0.187578,0.081009 -0.187578,0.1800209 0,0.09901 -0.05627,0.18002 -0.125052,0.18002 -0.07543,0 -0.125052,0.500057 -0.125052,1.260144 0,1.5615473 0.121962,1.7402003 1.187996,1.7402003 l 0.687786,0 0,0.780088 0,0.780089 -0.625261,0 c -0.343893,0 -0.62526,0.054 -0.62526,0.120014 0,0.066 -0.08441,0.120014 -0.187579,0.120014 -0.103168,0 -0.187578,0.08101 -0.187578,0.18002 0,0.09901 -0.05627,0.180021 -0.125052,0.180021 -0.07612,0 -0.125052,0.540062 -0.125052,1.380158 l 0,1.380158 0.937891,0 0.937891,0 0,0.908676 c 0,1.1065 -0.114923,1.25157 -0.991485,1.25157 -0.480359,0 -0.634193,0.04367 -0.634193,0.180021 0,0.09901 -0.05627,0.180021 -0.125052,0.180021 -0.07612,0 -0.125052,0.540061 -0.125052,1.380158 l 0,1.380158 0.812839,0 c 0.639155,0 0.812839,0.03846 0.812839,0.18002 0,0.09901 0.05627,0.18002 0.125051,0.18002 0.07225,0 0.125053,0.380045 0.125053,0.900103 l 0,0.900103 -0.812839,0 c -0.639155,0 -0.812839,0.03847 -0.812839,0.180021 0,0.09901 -0.05627,0.180021 -0.125052,0.180021 -0.07543,0 -0.125052,0.500057 -0.125052,1.260143 0,1.561548 0.121962,1.7402 1.187996,1.7402 l 0.687786,0 0,0.900103 0,0.900102 -0.812839,0 c -0.639155,0 -0.812839,0.03846 -0.812839,0.18002 0,0.09901 -0.05627,0.180021 -0.125052,0.180021 -0.07579,0 -0.125052,0.52006 -0.125052,1.320151 0,1.628561 0.113274,1.800206 1.187996,1.800206 l 0.687786,0 0,0.900102 0,0.900103 -0.812839,0 c -0.639155,0 -0.812839,0.03847 -0.812839,0.180021 0,0.09901 -0.05627,0.180021 -0.125052,0.180021 -0.07612,0 -0.125052,0.540061 -0.125052,1.380158 0,0.901436 0.04647,1.380158 0.133985,1.380158 0.07369,0 0.218394,0.08101 0.321562,0.18002 0.11599,0.111318 0.422795,0.18002 0.803907,0.18002 l 0.616328,0 0,0.600069 c 0,0.330038 -0.05627,0.600069 -0.125053,0.600069 -0.06878,0 -0.125051,0.08101 -0.125051,0.18002 0,0.130016 -0.138947,0.180021 -0.500209,0.180021 -0.275115,0 -0.500208,0.054 -0.500208,0.120014 0,0.066 -0.0603,0.120013 -0.133985,0.120013 -0.387673,0 -0.491276,0.352232 -0.491276,1.670249 0,1.665142 0.09238,1.810149 1.15326,1.810149 l 0.722522,0 0,0.548634 c 0,0.663706 -0.205435,0.89153 -0.803907,0.89153 -0.313623,0 -0.446614,0.0536 -0.446614,0.180021 0,0.09901 -0.0603,0.180021 -0.133985,0.180021 -0.387769,0 -0.491276,0.352194 -0.491276,1.67162 0,0.805806 0.04921,1.328723 0.125052,1.328723 0.06878,0 0.125052,0.08101 0.125052,0.180021 0,0.141555 0.173684,0.18002 0.812839,0.18002 l 0.812839,0 0,0.780089 0,0.780089 -1.875782,0 -1.875783,0 0,-0.771516 c 0,-0.525775 -0.05975,-0.828857 -0.187578,-0.951537 -0.213182,-0.204593 -0.247716,-0.437193 -0.06491,-0.437193 0.06747,0 0.157977,-0.135016 0.201135,-0.300034 0.04316,-0.165019 0.128637,-0.300035 0.189959,-0.300035 0.06226,0 0.111495,-1.298463 0.111495,-2.940336 0,-1.880215 -0.04509,-2.940336 -0.125051,-2.940336 -0.06878,0 -0.125053,-0.081 -0.125053,-0.180021 0,-0.146561 -0.207284,-0.180021 -1.115241,-0.180021 -0.613383,0 -1.204255,0.03278 -1.313048,0.07284 -0.173588,0.06392 -0.197806,0.468004 -0.197806,3.300377 0,2.788907 0.02549,3.22753 0.187579,3.22753 0.103167,0 0.187578,0.054 0.187578,0.120014 0,0.066 -0.201287,0.120014 -0.447302,0.120014 -0.327651,0 -0.545082,0.09384 -0.812839,0.350809 -0.323813,0.310767 -0.365537,0.434058 -0.365537,1.080124 l 0,0.729313 -0.687787,0 -0.687787,0 0,-0.780089 c 0,-0.44005 -0.05451,-0.780088 -0.125052,-0.780088 -0.06878,0 -0.125052,-0.081 -0.125052,-0.180021 0,-0.09901 -0.05627,-0.180021 -0.125052,-0.180021 -0.06878,0 -0.125053,-0.054 -0.125053,-0.120013 0,-0.06667 0.333474,-0.120014 0.750313,-0.120014 0.41684,0 0.750313,-0.05333 0.750313,-0.120014 0,-0.066 0.08039,-0.120014 0.178645,-0.120014 0.09827,0 0.267077,-0.08486 0.375157,-0.188593 0.16792,-0.161153 0.196512,-0.615134 0.196512,-3.120356 0,-2.851754 -0.0068,-2.931764 -0.250105,-2.931764 -0.138947,0 -0.250104,-0.08001 -0.250104,-0.180021 0,-0.148016 -0.222316,-0.180021 -1.250522,-0.180021 -1.028206,0 -1.250521,0.032 -1.250521,0.180021 0,0.09901 -0.05627,0.180021 -0.125052,0.180021 -0.07252,0 -0.135745,0.466338 -0.150508,1.110126 l -0.02545,1.110128 -0.04213,-0.990113 c -0.02317,-0.544563 -0.09613,-0.990114 -0.162123,-0.990114 -0.07322,0 -0.119996,1.099363 -0.119996,2.820322 0,1.800206 0.04523,2.820323 0.125053,2.820323 0.07045,0 0.136041,-0.406145 0.150217,-0.930106 l 0.02517,-0.930107 0.04262,0.930107 c 0.02344,0.511559 0.09653,0.930106 0.162412,0.930106 0.06589,0 0.119793,0.08102 0.119793,0.18002 0,0.09901 0.0844,0.180021 0.187577,0.180021 0.103169,0 0.187579,0.054 0.187579,0.120014 0,0.07008 -0.41965,0.120014 -1.008845,0.120014 -0.988761,0 -1.007102,-0.0054 -0.92136,-0.270032 0.04812,-0.148516 0.136318,-0.288032 0.196004,-0.310034 0.156517,-0.05769 0.140147,-5.900675 -0.01653,-5.900675 -0.06878,0 -0.125052,-0.081 -0.125052,-0.180021 0,-0.268778 -2.273593,-0.261148 -2.554637,0.0086 -0.16838,0.161596 -0.196511,0.627067 -0.196511,3.251607 0,2.962081 0.0082,3.065081 0.250104,3.125781 0.137558,0.03452 0.250105,0.110477 0.250105,0.168785 0,0.05831 0.337641,0.106017 0.750312,0.106017 0.416841,0 0.750314,0.05334 0.750314,0.120014 0,0.066 -0.05627,0.120013 -0.125052,0.120013 -0.06878,0 -0.125052,0.08101 -0.125052,0.180021 0,0.09901 -0.08441,0.180021 -0.187579,0.180021 -0.147497,0 -0.187578,0.166685 -0.187578,0.780089 l 0,0.780089 -0.687786,0 -0.687788,0 0,-0.780089 c 0,-0.440052 -0.05451,-0.780089 -0.125051,-0.780089 -0.06878,0 -0.125053,-0.05787 -0.125053,-0.128587 0,-0.256278 -0.366929,-0.471479 -0.803906,-0.471479 -0.513462,0 -0.595918,-0.178043 -0.133985,-0.28931 l 0.312631,-0.0753 0,-3.058064 c 0,-2.638271 -0.02575,-3.058064 -0.187579,-3.058064 -0.103168,0 -0.187578,-0.08101 -0.187578,-0.180021 0,-0.148016 -0.222316,-0.18002 -1.250521,-0.18002 -1.028208,0 -1.250522,0.032 -1.250522,0.18002 0,0.09901 -0.05628,0.180021 -0.125052,0.180021 -0.07252,0 -0.135745,0.466338 -0.150507,1.110127 l -0.02545,1.110126 -0.04213,-0.990112 c -0.02317,-0.544562 -0.09613,-0.990113 -0.162124,-0.990113 -0.07322,0 -0.119995,1.099362 -0.119995,2.820322 0,1.800206 0.04523,2.820322 0.125052,2.820322 0.07121,0 0.136012,-0.426331 0.150507,-0.990113 l 0.02545,-0.990113 0.04213,0.990113 c 0.02317,0.544563 0.09613,0.990113 0.162123,0.990113 0.066,0 0.119996,0.08101 0.119996,0.180021 0,0.09901 0.0844,0.180021 0.187578,0.180021 0.239776,0 0.239776,0.172787 0,0.402903 -0.103168,0.09901 -0.187578,0.237885 -0.187578,0.308607 0,0.07072 -0.05628,0.128585 -0.125052,0.128585 -0.07054,0 -0.125053,0.340039 -0.125053,0.78009 l 0,0.780089 -0.562734,0 -0.562735,0 0,-0.780089 c 0,-0.440051 -0.05451,-0.78009 -0.125052,-0.78009 -0.06878,0 -0.125052,-0.05787 -0.125052,-0.128585 0,-0.372722 -0.366723,-0.471483 -1.750731,-0.471483 -1.384008,0 -1.75073,0.09876 -1.75073,0.471483 0,0.07072 -0.08441,0.128585 -0.187577,0.128585 -0.147498,0 -0.187579,0.166687 -0.187579,0.78009 l 0,0.780089 -0.625261,0 -0.625261,0 0,-0.729314 c 0,-0.646066 -0.04173,-0.769357 -0.365537,-1.080124 -0.360296,-0.345779 -0.385524,-0.350809 -1.759663,-0.350809 -1.384715,0 -1.751416,0.09872 -1.751416,0.471483 0,0.07072 -0.05627,0.128585 -0.125053,0.128585 -0.07054,0 -0.125051,0.340039 -0.125051,0.78009 l 0,0.780089 -0.687787,0 -0.687787,0 0,-0.729314 c 0,-0.646066 -0.04173,-0.769357 -0.365538,-1.080124 -0.360013,-0.345509 -0.386463,-0.350809 -1.75073,-0.350809 -0.901657,0 -1.385193,0.04489 -1.385193,0.128586 0,0.166157 -0.318143,0.471482 -0.491275,0.471482 -0.08153,0 -0.133985,0.305368 -0.133985,0.78009 l 0,0.780089 -0.625261,0 -0.62526,0 0,-0.775357 c 0,-0.549768 -0.05584,-0.820381 -0.191919,-0.930107 -0.105555,-0.08512 -0.270355,-0.222257 -0.366225,-0.304766 -0.225023,-0.193669 -3.06837,-0.213528 -3.06837,-0.02143 0,0.166157 -0.318143,0.471482 -0.491275,0.471482 -0.08153,0 -0.133985,0.305368 -0.133985,0.78009 l 0,0.780089 -0.625261,0 -0.62526,0 0,-0.900103 c 0,-0.720083 -0.03752,-0.900103 -0.187579,-0.900103 -0.103167,0 -0.187578,-0.081 -0.187578,-0.18002 0,-0.150018 -0.250104,-0.180021 -1.500625,-0.180021 -1.333891,0 -1.528416,0.02667 -1.750731,0.240027 -0.137558,0.132015 -0.250105,0.34804 -0.250105,0.480055 0,0.132015 -0.05627,0.240028 -0.125051,0.240028 -0.06878,0 -0.125053,0.270031 -0.125053,0.600069 l 0,0.600068 -0.687786,0 -0.687787,0 0,-0.840097 c 0,-0.680077 -0.04764,-0.885814 -0.250105,-1.080123 -0.202465,-0.194308 -0.416839,-0.240027 -1.125469,-0.240027 -0.897248,0 -1.045284,-0.0941 -0.687787,-0.437193 0.158883,-0.15248 0.187579,-0.764711 0.187579,-4.002072 0,-2.102127 -0.03416,-3.907476 -0.0759,-4.011886 -0.06774,-0.169412 -0.71358,-0.189837 -6.002504,-0.189837 l -5.926598,0 0,4.011888 c 0,3.406102 0.02832,4.039069 0.187579,4.191907 0.300096,0.288006 0.219316,0.437193 -0.236725,0.437193 -0.433568,0 -0.576114,0.1509 -0.576114,0.609884 0,0.126616 -0.05627,0.230211 -0.125052,0.230211 -0.06878,0 -0.125052,0.297035 -0.125052,0.660076 l 0,0.660076 -0.812839,0 -0.812839,0 0,-0.780089 c 0,-0.42905 -0.05017,-0.78009 -0.111496,-0.78009 -0.06133,0 -0.146805,-0.135015 -0.18996,-0.300034 -0.07841,-0.299814 -0.0796,-0.300034 -1.625856,-0.300034 -1.791839,0 -1.6992,-0.06924 -1.6992,1.26996 l 0,0.890287 -0.937892,0 -0.937891,0 0,-0.780089 c 0,-0.42905 -0.05017,-0.78009 -0.111495,-0.78009 -0.06133,0 -0.146805,-0.135015 -0.189961,-0.300034 -0.07845,-0.299987 -0.0787,-0.300034 -1.639234,-0.300034 l -1.56077,0 0,1.080123 0,1.080124 -10.441855,0 -10.441855,0 0,-0.780089 0,-0.78009 4.635862,0 c 4.955669,0 4.993154,-0.0044 4.993154,-0.591495 0,-0.136731 0.05628,-0.2486 0.125052,-0.2486 0.07966,0 0.125052,-0.980112 0.125052,-2.700309 0,-1.720197 -0.04539,-2.700309 -0.125052,-2.700309 -0.06947,0 -0.125052,-0.320037 -0.125052,-0.720083 l 0,-0.720082 -0.500208,0 c -0.361262,0 -0.500209,-0.05 -0.500209,-0.180021 0,-0.156266 -0.527999,-0.180019 -4.0016693,-0.180019 -2.5844112,0 -4.0016689,-0.04251 -4.0016689,-0.120015 0,-0.066 -0.084411,-0.120013 -0.1875782,-0.120013 -0.103168,0 -0.1875782,-0.08101 -0.1875782,-0.180021 0,-0.09901 -0.056273,-0.18002 -0.1250522,-0.18002 -0.068778,0 -0.1250522,-0.135016 -0.1250522,-0.300034 0,-0.18669 0.070863,-0.300035 0.1875783,-0.300035 0.103168,0 0.1875782,0.054 0.1875782,0.120014 0,0.07738 1.3547316,0.120013 3.8140907,0.120013 2.4593588,0 3.8140908,-0.04263 3.8140908,-0.120013 0,-0.0677 0.354314,-0.120014 0.812839,-0.120014 0.639155,0 0.812839,-0.03847 0.812839,-0.18002 0,-0.09901 0.05628,-0.180021 0.125052,-0.180021 0.06878,0 0.125052,-0.216025 0.125052,-0.480055 0,-0.346707 0.0521,-0.480055 0.187578,-0.480055 0.160919,0 0.187579,-0.366709 0.187579,-2.580294 0,-2.213587 -0.02666,-2.580296 -0.187579,-2.580296 -0.116714,0 -0.187578,-0.113346 -0.187578,-0.300034 0,-0.165019 -0.05627,-0.300034 -0.125052,-0.300034 -0.06878,0 -0.125052,-0.162019 -0.125052,-0.360042 l 0,-0.36004 -0.812839,0 c -0.458525,0 -0.812839,-0.05232 -0.812839,-0.120015 0,-0.07751 -1.417258,-0.120013 -4.001669,-0.120013 -2.3630681,0 -4.001669,-0.04537 -4.001669,-0.110819 0,-0.06502 1.8949234,-0.127018 4.5853215,-0.150017 3.5276895,-0.03016 4.5973225,-0.07381 4.6373515,-0.189216 0.02861,-0.08251 0.131749,-0.150017 0.229185,-0.150017 0.1056,0 0.177158,-0.121189 0.177158,-0.300034 0,-0.165019 0.05628,-0.300035 0.125052,-0.300035 0.06878,0 0.125052,-0.08101 0.125052,-0.18002 0,-0.09901 0.0844,-0.18002 0.187578,-0.18002 0.1613,0 0.187579,-0.386711 0.187579,-2.760316 0,-2.373604 -0.02628,-2.760316 -0.187579,-2.760316 -0.135472,0 -0.187578,-0.133348 -0.187578,-0.480054 0,-0.26403 -0.05627,-0.480055 -0.125052,-0.480055 -0.06878,0 -0.125052,-0.135016 -0.125052,-0.300034 0,-0.240029 -0.06253,-0.300035 -0.312631,-0.300035 -0.171946,0 -0.31263,-0.054 -0.31263,-0.120013 0,-0.0776 -1.491342,-0.120592 -4.2205099,-0.121652 -2.3212808,-9.61e-4 -4.3471257,-0.03421 -4.5018777,-0.074 C 5.1965838,22.182622 5.071288,22.056737 5.071288,21.94007 c 0,-0.321878 0.5244764,-0.358973 5.095876,-0.360424 2.687703,-8.56e-4 4.157983,-0.04377 4.157983,-0.121337 0,-0.066 0.0844,-0.120013 0.187579,-0.120013 0.103167,0 0.187578,-0.08101 0.187578,-0.180021 0,-0.09901 0.05628,-0.180021 0.125052,-0.180021 0.06878,0 0.125052,-0.08101 0.125052,-0.180019 0,-0.09901 0.0844,-0.180021 0.187578,-0.180021 0.16175,0 0.187579,-0.414406 0.187579,-3.009575 l 0,-3.009574 -0.365537,-0.35081 -0.365537,-0.350809 -4.582955,0 c -5.0722231,0 -4.940248,0.02061 -4.940248,-0.771517 l 0,-0.428621 6.440186,0 c 5.641241,0 6.440186,-0.02233 6.440186,-0.18002 0,-0.09901 0.05627,-0.180021 0.125052,-0.180021 0.07584,0 0.125053,-0.522918 0.125053,-1.328723 0,-1.0838933 -0.03868,-1.3658433 -0.20991,-1.5301753 -0.191921,-0.184189 -0.863454,-0.201452 -7.836601,-0.201452 -5.990197,0 -7.6378734,0.03219 -7.6787981,0.150017 -0.028658,0.08251 -0.1318259,0.150018 -0.2292623,0.150018 -0.148838,0 -0.1771573,0.5659473 -0.1771573,3.5404043 l 0,3.540405 4.6894558,0 4.6894559,0 0,0.587545 0,0.587546 -4.4288597,0.04253 -4.4288595,0.04252 -0.2605962,0.288395 c -0.2515607,0.278394 -0.2605963,0.412591 -0.2605963,3.870443 0,3.010385 0.028273,3.582047 0.1771573,3.582047 0.097437,0 0.2005701,0.0675 0.2291859,0.150017 0.040026,0.115408 1.0810308,0.15795 4.5122985,0.184398 l 4.46027,0.03439 0,0.595691 0,0.595692 -4.4482839,0 c -3.9959016,0 -4.4696311,0.02047 -4.6581927,0.201266 -0.1845652,0.176965 -0.2143563,0.604423 -0.2467438,3.540405 l -0.036835,3.339138 2.1314585,0 c 1.3376042,0 2.1314584,0.0447 2.1314584,0.120015 0,0.066 0.084411,0.120013 0.1875783,0.120013 0.1031679,0 0.1875781,-0.054 0.1875781,-0.120013 0,-0.0758 0.8753651,-0.120015 2.375991,-0.120015 l 2.3759911,0 0,0.900103 0,0.900103 -4.5018777,0 c -3.9183007,0 -4.5018776,0.02334 -4.5018776,0.180021 0,0.09901 -0.084411,0.18002 -0.1875782,0.18002 -0.1624971,0 -0.1875783,0.473387 -0.1875783,3.540405 0,3.067017 0.025082,3.540405 0.1875783,3.540405 0.1167153,0 0.1875782,0.113346 0.1875782,0.300034 l 0,0.300035 4.5018776,0 4.5018777,0 0,0.660074 0,0.660076 -4.4559467,0 c -4.4058315,0 -4.4585726,0.0029 -4.6894558,0.258392 -0.2080829,0.230254 -0.2335093,0.478547 -0.2335093,2.280261 l 0,2.021869 -0.4376825,0 -0.4376825,0 0,-22.082525 z M 63.845799,47.081206 c 0,-0.09901 0.0603,-0.180021 0.133985,-0.180021 0.07369,0 0.218394,-0.081 0.321562,-0.180021 0.142588,-0.136843 0.498223,-0.180021 1.482762,-0.180021 0.984537,0 1.340173,0.04318 1.48276,0.180021 0.103168,0.09901 0.247872,0.180021 0.321563,0.180021 0.07369,0 0.133985,0.08101 0.133985,0.180021 0,0.153702 0.347366,0.18002 2.375991,0.18002 2.028623,0 2.375991,-0.02632 2.375991,-0.18002 0,-0.09901 0.0844,-0.180021 0.187577,-0.180021 0.103169,0 0.187579,-0.054 0.187579,-0.120014 0,-0.066 0.0844,-0.120013 0.187578,-0.120013 0.160604,0 0.187578,-0.351948 0.187578,-2.447442 0,-2.121034 -0.02638,-2.457155 -0.197806,-2.520288 -0.108792,-0.04006 -1.4272,-0.07284 -2.929793,-0.07284 -2.261698,0 -2.764277,0.03099 -2.919566,0.180021 -0.14031,0.134657 -0.485819,0.18002 -1.371126,0.18002 -0.936684,0 -1.198562,-0.03755 -1.25553,-0.18002 -0.110267,-0.275775 -5.722927,-0.267772 -6.010873,0.0086 -0.287759,0.276169 -0.296183,4.851987 -0.0089,4.851987 0.103169,0 0.187578,0.054 0.187578,0.120014 0,0.066 0.0844,0.120014 0.187579,0.120014 0.103168,0 0.187578,0.08101 0.187578,0.18002 0,0.153702 0.347367,0.180021 2.375991,0.180021 2.028623,0 2.375991,-0.02632 2.375991,-0.180021 z m -8.826405,-0.492895 c 0.108795,-0.04006 0.197807,-0.202084 0.197807,-0.360041 0,-0.157956 0.05627,-0.287195 0.125051,-0.287195 0.07356,0 0.125053,-0.420048 0.125053,-1.020117 0,-0.600068 -0.05149,-1.020116 -0.125053,-1.020116 -0.07146,0 -0.125051,-0.360042 -0.125051,-0.840096 0,-0.480055 0.05359,-0.840096 0.125051,-0.840096 0.07225,0 0.125053,-0.380044 0.125053,-0.900103 0,-0.520059 -0.0528,-0.900103 -0.125053,-0.900103 -0.06878,0 -0.125051,-0.135016 -0.125051,-0.300035 0,-0.186688 -0.07086,-0.300034 -0.187579,-0.300034 -0.103168,0 -0.187578,-0.054 -0.187578,-0.120013 0,-0.07052 -0.434874,-0.120014 -1.054516,-0.120014 -0.944689,0 -1.062785,0.02501 -1.133896,0.240027 -0.04366,0.132015 -0.131862,0.240028 -0.196006,0.240028 -0.06902,0 -0.116625,1.224653 -0.116625,3.000343 0,1.920219 0.04502,3.000343 0.125052,3.000343 0.06878,0 0.125053,0.09901 0.125053,0.220025 0,0.121014 0.03751,0.25603 0.08336,0.300035 0.104224,0.100025 2.076409,0.106049 2.34492,0.0072 l 0,-2e-6 z M 34.657296,46.001082 c 0.04316,-0.165019 0.128638,-0.300034 0.18996,-0.300034 0.06226,0 0.111496,-1.298463 0.111496,-2.940336 l 0,-2.940337 -0.312631,0 c -0.171946,0 -0.31263,-0.054 -0.31263,-0.120013 0,-0.07112 -0.458526,-0.120014 -1.125469,-0.120014 -0.666944,0 -1.12547,0.0489 -1.12547,0.120014 0,0.066 -0.136892,0.120013 -0.304203,0.120013 -0.184168,0 -0.327179,0.08288 -0.36243,0.210025 -0.03202,0.115513 -0.05783,1.438665 -0.05735,2.940335 7.5e-4,2.251594 0.03138,2.730313 0.174852,2.730313 0.09567,0 0.173967,0.08101 0.173967,0.18002 0,0.09901 0.08441,0.180021 0.187579,0.180021 0.103167,0 0.187577,0.054 0.187577,0.120014 0,0.07198 0.499415,0.120013 1.248139,0.120013 1.227055,0 1.249464,-0.0051 1.326605,-0.300034 z m -4.825683,-2.160247 c 0,-0.240028 0.06253,-0.300035 0.312631,-0.300035 l 0.31263,0 0,-1.860212 0,-1.860213 -0.30221,0 c -0.166215,0 -0.324382,-0.06384 -0.351482,-0.141867 -0.0721,-0.207599 -8.873431,-0.211499 -8.945514,-0.0039 -0.02786,0.0802 -0.130372,0.145827 -0.227808,0.145827 -0.145684,0 -0.177158,0.351805 -0.177158,1.980227 0,1.680191 0.02842,1.980226 0.187578,1.980226 0.103168,0 0.187579,0.08101 0.187579,0.18002 0,0.156686 0.583577,0.180021 4.501877,0.180021 l 4.501877,0 0,-0.300034 z m 42.194874,-4.333334 c 0.17304,-0.06372 0.197806,-0.446728 0.197806,-3.058978 0,-3.679713 0.100471,-3.468929 -1.653469,-3.468929 -1.220878,0 -1.22273,4.54e-4 -1.22273,0.300034 0,0.165019 -0.05627,0.300034 -0.125053,0.300034 -0.06878,0 -0.135895,0.364542 -0.149147,0.810092 l -0.02409,0.810093 -0.0444,-0.750086 c -0.02442,-0.412546 -0.09798,-0.750085 -0.163484,-0.750085 -0.07196,0 -0.119084,1.092325 -0.119084,2.760316 0,1.672096 0.04705,2.760315 0.119338,2.760315 0.06564,0 0.139025,-0.364541 0.163086,-0.810092 l 0.04375,-0.810093 0.02449,0.810093 c 0.01346,0.445551 0.08076,0.810092 0.149545,0.810092 0.06878,0 0.125053,0.08101 0.125053,0.18002 0,0.147918 0.221178,0.180021 1.240293,0.180021 0.682162,0 1.329308,-0.03278 1.4381,-0.07284 z m 23.457506,-1.487332 c 0.247205,-0.237244 0.250106,-0.400045 0.250106,-14.041604 0,-8.94234 -0.04319,-13.801578 -0.122671,-13.801578 -0.06747,0 -0.157978,-0.135015 -0.201135,-0.3000343 l -0.07846,-0.300035 -10.740928,0 c -7.554626,0 -10.740929,0.03815 -10.740929,0.128586 0,0.07072 -0.08441,0.209596 -0.187577,0.3086073 -0.16455,0.15792 -0.187579,1.864976 -0.187579,13.904446 0,12.039472 0.02303,13.746529 0.187579,13.904448 0.103167,0.09901 0.187577,0.237885 0.187577,0.308606 0,0.09043 3.172157,0.128586 10.691959,0.128586 10.525224,0 10.69586,-0.0037 10.942063,-0.240028 l 0,0 z m -27.959384,-0.07284 c 0.108794,-0.04006 0.197807,-0.202084 0.197807,-0.360041 0,-0.157957 0.05627,-0.287195 0.125052,-0.287195 0.08262,0 0.125052,-4.540518 0.125052,-13.38153 0,-8.84101 -0.04243,-13.381529 -0.125052,-13.381529 -0.06878,0 -0.125052,-0.216024 -0.125052,-0.480055 l 0,-0.4800553 -14.242566,0 c -12.871999,0 -14.249871,0.01826 -14.318472,0.189837 -0.104056,0.2602393 -0.09669,28.0734513 0.0075,28.1734053 0.104151,0.09996 28.084611,0.107024 28.355768,0.0072 l -3e-6,-2e-6 z M 32.957917,36.940046 c 0,-0.06858 0.375157,-0.120014 0.875365,-0.120014 0.500209,0 0.875366,0.05143 0.875366,0.120014 0,0.0687 0.378362,0.120014 0.884983,0.120014 0.811405,0 0.915377,-0.02917 1.250522,-0.35081 0.347189,-0.333201 0.365537,-0.402474 0.365537,-1.380158 0,-0.606223 -0.0514,-1.029348 -0.125051,-1.029348 -0.06878,0 -0.125053,-0.081 -0.125053,-0.180021 0,-0.09901 -0.08441,-0.18002 -0.187578,-0.18002 -0.103168,0 -0.187578,-0.054 -0.187578,-0.120014 0,-0.07653 -1.042101,-0.120013 -2.876199,-0.120013 -1.8341,0 -2.8762,0.04348 -2.8762,0.120013 0,0.066 -0.138133,0.120014 -0.306965,0.120014 -0.252151,0 -0.321711,0.07544 -0.389559,0.422534 -0.04543,0.232394 -0.05998,0.763406 -0.03233,1.180026 0.04257,0.641541 0.10698,0.813873 0.420821,1.125837 0.352146,0.350037 0.421845,0.368934 1.402245,0.380153 0.61262,0.007 1.03168,-0.03695 1.03168,-0.108207 l 0,0 z m -8.628599,-3.540405 c 0,-1.960223 -0.04495,-3.06035 -0.125051,-3.06035 -0.06878,0 -0.125053,-0.08101 -0.125053,-0.18002 0,-0.148589 -0.229261,-0.18002 -1.313047,-0.18002 l -1.313048,0 0,1.190136 c 0,0.830712 -0.04614,1.204895 -0.152773,1.239009 -0.09663,0.03092 -0.170587,0.387445 -0.201246,0.970111 -0.04136,0.785948 -0.01891,0.921237 0.152772,0.921237 0.170054,0 0.201247,0.167419 0.201247,1.080124 l 0,1.080124 1.4381,0 1.438099,0 0,-3.060351 z m 4.172955,2.790319 c 0.04148,-0.148516 0.07617,-0.634572 0.07711,-1.080123 0.0013,-0.640801 -0.0375,-0.810093 -0.185872,-0.810093 -0.203593,0 -0.261752,-0.314753 -0.07022,-0.380043 0.06455,-0.02201 0.156538,-0.771455 0.20443,-1.665449 0.07591,-1.41702 0.06087,-1.650601 -0.117355,-1.821636 -0.112435,-0.107907 -0.204428,-0.254057 -0.204428,-0.324779 0,-0.08292 -0.447211,-0.128586 -1.259455,-0.128586 -1.246371,0 -1.616745,0.108009 -1.616745,0.471483 0,0.07072 -0.08441,0.128585 -0.187578,0.128585 -0.1613,0 -0.187578,0.386711 -0.187578,2.760315 0,2.373606 0.02628,2.760316 0.187578,2.760316 0.103168,0 0.187578,0.08101 0.187578,0.180021 0,0.150327 0.255432,0.180021 1.548567,0.180021 1.500211,0 1.550921,-0.0085 1.62397,-0.270032 l 0,0 z m 43.72202,-10.771231 c 0,-3.677011 0.09537,-3.480397 -1.688204,-3.480397 -1.183828,0 -1.187995,0.0011 -1.187995,0.300034 0,0.165018 -0.05627,0.300034 -0.125053,0.300034 -0.07045,0 -0.136041,0.406145 -0.150217,0.930106 l -0.02517,0.930106 -0.04262,-0.930106 c -0.02344,-0.511558 -0.09654,-0.930106 -0.162412,-0.930106 -0.07288,0 -0.119792,1.08092 -0.119792,2.760315 0,1.672098 0.04705,2.760316 0.119338,2.760316 0.06564,0 0.139025,-0.364542 0.163086,-0.810093 l 0.04375,-0.810093 0.02449,0.815159 c 0.01346,0.448337 0.09484,0.891833 0.180809,0.985549 0.11708,0.127624 0.509418,0.171535 1.563152,0.174953 l 1.406836,0.0046 0,-3.000343 z m -36.01502,0.96011 c 0,-0.066 0.0844,-0.120014 0.187578,-0.120014 0.162349,0 0.187579,-0.460052 0.187579,-3.42039 l 0,-3.420392 -0.625261,0 -0.625261,0 0,-0.900103 c 0,-0.720082 -0.03752,-0.900103 -0.187578,-0.900103 -0.103169,0 -0.187578,-0.08101 -0.187578,-0.18002 0,-0.141555 -0.173684,-0.18002 -0.812839,-0.18002 -0.617906,0 -0.812839,0.04078 -0.812839,0.170019 0,0.0935 -0.06894,0.192073 -0.153199,0.219028 -0.100628,0.03219 -0.143188,0.269811 -0.124027,0.692457 0.04499,0.992339 -0.01361,1.078742 -0.731619,1.078742 -0.339257,0 -0.616833,-0.054 -0.616833,-0.120014 0,-0.066 -0.257561,-0.120013 -0.572354,-0.120013 -0.465865,0 -0.640363,0.06526 -0.937891,0.350809 -0.323813,0.310767 -0.365538,0.434058 -0.365538,1.080124 l 0,0.729314 0.625261,0 c 0.343894,0 0.625261,0.054 0.625261,0.120014 0,0.066 -0.281367,0.120013 -0.625261,0.120013 l -0.625261,0 0,0.78009 c 0,0.613403 0.04008,0.780089 0.187579,0.780089 0.103167,0 0.187578,0.081 0.187578,0.18002 0,0.09901 -0.08441,0.180021 -0.187578,0.180021 -0.147498,0 -0.187579,0.166686 -0.187579,0.780089 0,0.474721 0.05245,0.780089 0.133985,0.780089 0.07369,0 0.214375,0.07716 0.312631,0.171449 0.09825,0.09429 0.178645,0.229312 0.178645,0.300034 0,0.07072 0.196958,0.128586 0.437682,0.128586 0.275169,0 0.437684,0.05778 0.437684,0.155611 0,0.08558 0.09848,0.273892 0.21884,0.418457 0.21029,0.252576 0.305584,0.262911 2.438518,0.264438 1.39752,9.6e-4 2.219675,-0.04286 2.219675,-0.118424 z m 36.01502,-10.85987 c 0,-3.763123 0.103336,-3.541776 -1.653469,-3.541776 l -1.22273,0 0,0.360041 c 0,0.198022 -0.0537,0.360041 -0.119339,0.360041 -0.06564,0 -0.139024,0.364543 -0.163085,0.810093 l -0.04375,0.810092 -0.02449,-0.810092 c -0.01346,-0.44555 -0.08076,-0.810093 -0.149545,-0.810093 -0.07974,0 -0.125052,1.000114 -0.125052,2.760316 0,1.672096 0.04705,2.760315 0.119338,2.760315 0.06564,0 0.139025,-0.364541 0.163086,-0.810092 l 0.04375,-0.810093 0.02449,0.810093 c 0.01346,0.445551 0.08076,0.810092 0.149545,0.810092 0.06878,0 0.125053,0.081 0.125053,0.18002 0,0.149584 0.243156,0.180021 1.438099,0.180021 l 1.4381,0 0,-3.058978 z m -47.894975,0.238656 c 0,-0.186687 0.07086,-0.300034 0.187579,-0.300034 0.161632,0 0.187578,-0.406714 0.187578,-2.940337 l 0,-2.9403363 -0.31263,0 c -0.171947,0 -0.312631,-0.05401 -0.312631,-0.120013 0,-0.06601 -0.08441,-0.120014 -0.187578,-0.120014 -0.103168,0 -0.187578,-0.08101 -0.187578,-0.180021 0,-0.140457 -0.168617,-0.18002 -0.767236,-0.18002 -0.657754,0 -0.808581,0.04281 -1.056972,0.300034 -0.159355,0.165019 -0.404971,0.300034 -0.545812,0.300034 -0.251098,0 -0.256075,0.05716 -0.256075,2.9403363 0,2.533623 0.02595,2.940337 0.187578,2.940337 0.103168,0 0.187578,0.05628 0.187578,0.125078 0,0.369008 0.328453,0.465917 1.594416,0.470426 l 1.281783,0.0046 0,-0.300034 z m 3.876618,0 c 0,-0.186687 0.07086,-0.300034 0.187578,-0.300034 0.161379,0 0.187578,-0.391338 0.187578,-2.80196 0,-2.563322 -0.01989,-2.8239653 -0.23351,-3.0603503 -0.12843,-0.142114 -0.29725,-0.25839 -0.375157,-0.25839 -0.0779,0 -0.141646,-0.08101 -0.141646,-0.180021 0,-0.144016 -0.187578,-0.18002 -0.937891,-0.18002 -0.750313,0 -0.937891,0.036 -0.937891,0.18002 0,0.09901 -0.0603,0.180021 -0.133985,0.180021 -0.07369,0 -0.214374,0.07715 -0.312631,0.171448 -0.144929,0.139092 -0.178645,0.7166533 -0.178645,3.0603503 0,1.845926 0.04515,2.888902 0.125052,2.888902 0.06878,0 0.125053,0.135015 0.125053,0.300034 l 0,0.300034 1.313047,0 1.313048,0 0,-0.300034 z m 7.199431,0.128586 c 0.09825,-0.09429 0.178645,-0.229312 0.178645,-0.300034 0,-0.07072 0.0844,-0.128586 0.187579,-0.128586 0.161279,0 0.187578,-0.385621 0.187578,-2.750499 0,-1.512776 -0.03415,-2.8359273 -0.0759,-2.9403373 -0.04175,-0.10441 -0.182432,-0.189837 -0.312631,-0.189837 -0.130198,0 -0.236725,-0.05401 -0.236725,-0.120013 0,-0.06601 -0.08441,-0.120014 -0.187578,-0.120014 -0.103169,0 -0.187578,-0.08101 -0.187578,-0.180021 0,-0.144016 -0.187578,-0.18002 -0.937892,-0.18002 -0.750313,0 -0.937891,0.036 -0.937891,0.18002 0,0.09901 -0.08441,0.180021 -0.187577,0.180021 -0.103169,0 -0.187579,0.05401 -0.187579,0.120014 0,0.06601 -0.08441,0.120013 -0.187578,0.120013 -0.161617,0 -0.187578,0.405761 -0.187578,2.9317643 0,2.445994 0.03108,2.961591 0.187578,3.111785 0.103168,0.09901 0.187578,0.237884 0.187578,0.308607 0,0.208565 2.476574,0.169214 2.697554,-0.04286 l 0,0 z"
     id="path4272"
     inkscape:connector-curvature="0" />
  <path
     style="fill:#000000;fill-opacity:0"
     d="m 1.1946703,5.736479 c 0,-0.079201 4.2100892,-0.1200138 12.3801627,-0.1200138 8.170073,0 12.380164,0.040812 12.380164,0.1200138 0,0.079201 -4.210091,0.1200137 -12.380164,0.1200137 -8.1700735,0 -12.3801627,-0.040812 -12.3801627,-0.1200137 z"
     id="path4274"
     inkscape:connector-curvature="0" />
  <path
     style="fill:#000000;fill-opacity:0"
     d="m 1.1946703,5.736479 c 0,-0.079201 4.2100892,-0.1200138 12.3801627,-0.1200138 8.170073,0 12.380164,0.040812 12.380164,0.1200138 0,0.079201 -4.210091,0.1200137 -12.380164,0.1200137 -8.1700735,0 -12.3801627,-0.040812 -12.3801627,-0.1200137 z"
     id="path4276"
     inkscape:connector-curvature="0" />
  <path
     style="fill:#000000;fill-opacity:0"
     d="m 1.1946703,5.736479 c 0,-0.079201 4.2100892,-0.1200138 12.3801627,-0.1200138 8.170073,0 12.380164,0.040812 12.380164,0.1200138 0,0.079201 -4.210091,0.1200137 -12.380164,0.1200137 -8.1700735,0 -12.3801627,-0.040812 -12.3801627,-0.1200137 z"
     id="path4278"
     inkscape:connector-curvature="0" />
  <path
     style="fill:#000000;fill-opacity:0"
     d="m 5.071287,29.979251 c 0,-11.91865 2.1675706,-18.242085 6.252608,-18.242085 4.085037,0 6.252608,6.323435 6.252608,18.242085 0,11.918649 -2.167571,18.242084 -6.252608,18.242084 -4.0850374,0 -6.252608,-6.323435 -6.252608,-18.242084 z"
     id="path4282"
     inkscape:connector-curvature="0" />
  <rect
     style="fill:#0d9557;fill-opacity:1;fill-rule:nonzero"
     id="rect5807"
     width="97.790779"
     height="45.12516"
     x="1.3479744"
     y="5.4224048" />
  <rect
     style="fill:url(#linearGradient5774);fill-opacity:1;fill-rule:nonzero"
     id="rect4318"
     width="28.386839"
     height="27.363129"
     x="39.363831"
     y="10.10294" />
  <rect
     style="fill:#333333;fill-opacity:1;fill-rule:nonzero"
     id="rect3085"
     width="26.76116"
     height="26.042976"
     x="40.11414"
     y="10.823021" />
  <text
     xml:space="preserve"
     style="font-size:6.29823494px;font-style:normal;font-variant:normal;font-weight:normal;font-stretch:normal;text-align:center;line-height:125%;letter-spacing:0px;word-spacing:0px;text-anchor:middle;fill:#000000;fill-opacity:1;stroke:none;font-family:OCR A Std;-inkscape-font-specification:OCR A Std"
     x="52.572773"
     y="22.78517"
     id="text3014"
     sodipodi:linespacing="125%"
     transform="scale(1.0207752,0.9796476)"><tspan
       sodipodi:role="line"
       id="tspan3016"
       x="52.572773"
       y="22.78517"
       style="font-style:normal;font-variant:normal;font-weight:normal;font-stretch:normal;text-align:center;text-anchor:middle;fill:#ffffff;font-family:OCRA;-inkscape-font-specification:OCRA">HC-05</tspan><tspan
       sodipodi:role="line"
       x="52.572773"
       y="28.344095"
       style="font-size:3.77894068px;font-style:normal;font-variant:normal;font-weight:normal;font-stretch:normal;text-align:center;text-anchor:middle;fill:#ffffff;font-family:OCRA;-inkscape-font-specification:OCRA"
       id="tspan3018">Bluetooth</tspan></text>
  <path
     style="fill:#000000;fill-opacity:0"
     d="m 47.016877,22.182379 c -0.363766,-0.141267 -1.178588,-1.672489 -1.178588,-2.214816 0,-0.528997 0.766299,-2.045234 1.127382,-2.230694 0.387753,-0.199159 1.811343,-0.104063 1.811343,0.120996 0,0.138157 -0.190645,0.18815 -0.819806,0.214976 l -0.819806,0.03496 -0.399452,0.77741 c -0.492373,0.95825 -0.495887,1.196439 -0.03071,2.080833 0.395623,0.752147 0.560746,0.847801 1.468392,0.85064 0.548338,0.0018 0.818275,0.194142 0.523609,0.373261 -0.216628,0.131682 -1.336776,0.126648 -1.682369,-0.0076 l 0,0 z"
     id="path4280"
     inkscape:connector-curvature="0" />
  <rect
     style="fill:url(#linearGradient5790);fill-opacity:1;fill-rule:nonzero"
     id="rect4318-6"
     width="21.50897"
     height="27.363129"
     x="74.065811"
     y="10.222954" />
  <rect
     style="fill:#d4aa00;fill-opacity:1;fill-rule:nonzero"
     id="Antenna"
     width="19.258032"
     height="37.924335"
     x="4.099122"
     y="8.4227476"
     ry="0">
    <title
       id="title5896">Antenna</title>
  </rect>
  <rect
     style="fill:#0d9557;fill-opacity:1;fill-rule:nonzero"
     id="rect5811"
     width="3.8766167"
     height="37.444283"
     x="19.980745"
     y="10.46298" />
  <rect
     style="fill:#0d9557;fill-opacity:1;fill-rule:nonzero"
     id="rect5813"
     width="13.630685"
     height="2.4002743"
     x="6.4751129"
     y="10.46298" />
  <rect
     style="fill:#0d9557;fill-opacity:1;fill-rule:nonzero"
     id="rect5813-0"
     width="13.630685"
     height="2.4002743"
     x="3.7864912"
     y="14.903488" />
  <rect
     style="fill:#0d9557;fill-opacity:1;fill-rule:nonzero"
     id="rect5813-0-3"
     width="13.630685"
     height="2.4002743"
     x="6.4125867"
     y="19.223982" />
  <rect
     style="fill:#0d9557;fill-opacity:1;fill-rule:nonzero"
     id="rect5813-0-6"
     width="13.630685"
     height="2.4002743"
     x="3.9740696"
     y="23.544477" />
  <rect
     style="fill:#0d9557;fill-opacity:1;fill-rule:nonzero"
     id="rect5813-0-3-2"
     width="13.630685"
     height="2.4002743"
     x="6.6001649"
     y="27.864971" />
  <rect
     style="fill:#0d9557;fill-opacity:1;fill-rule:nonzero"
     id="rect5813-0-4"
     width="13.630685"
     height="2.4002743"
     x="3.8490176"
     y="32.545502" />
  <rect
     style="fill:#0d9557;fill-opacity:1;fill-rule:nonzero"
     id="rect5813-0-3-5"
     width="13.630685"
     height="2.4002743"
     x="6.4751129"
     y="37.106026" />
  <rect
     style="fill:#9393ac;fill-opacity:1;fill-rule:nonzero"
     id="rect5898"
     width="3.5014603"
     height="5.640645"
     x="26.108301"
     y="1.5819654" />
  <rect
     style="fill:#9393ac;fill-opacity:1;fill-rule:nonzero"
     id="rect5898-8"
     width="3.5014603"
     height="5.640645"
     x="31.485544"
     y="1.5219586" />
  <rect
     style="fill:#9393ac;fill-opacity:1;fill-rule:nonzero"
     id="rect5898-1"
     width="3.5014603"
     height="5.640645"
     x="37.175419"
     y="1.4319484" />
  <rect
     style="fill:#9393ac;fill-opacity:1;fill-rule:nonzero"
     id="rect5898-8-2"
     width="3.5014603"
     height="5.640645"
     x="42.552658"
     y="1.3719416" />
  <rect
     style="fill:#9393ac;fill-opacity:1;fill-rule:nonzero"
     id="rect5898-14"
     width="3.5014603"
     height="5.640645"
     x="48.023689"
     y="1.3869433" />
  <rect
     style="fill:#9393ac;fill-opacity:1;fill-rule:nonzero"
     id="rect5898-8-9"
     width="3.5014603"
     height="5.640645"
     x="53.400932"
     y="1.3269365" />
  <rect
     style="fill:#9393ac;fill-opacity:1;fill-rule:nonzero"
     id="rect5898-1-8"
     width="3.5014603"
     height="5.640645"
     x="59.090805"
     y="1.2369263" />
  <rect
     style="fill:#9393ac;fill-opacity:1;fill-rule:nonzero"
     id="rect5898-8-2-2"
     width="3.5014603"
     height="5.640645"
     x="64.468048"
     y="1.1769192" />
  <rect
     style="fill:#9393ac;fill-opacity:1;fill-rule:nonzero"
     id="rect5898-14-4"
     width="3.5014603"
     height="5.640645"
     x="69.532661"
     y="1.3869433" />
  <rect
     style="fill:#9393ac;fill-opacity:1;fill-rule:nonzero"
     id="rect5898-8-9-5"
     width="3.5014603"
     height="5.640645"
     x="74.909904"
     y="1.3269365" />
  <rect
     style="fill:#9393ac;fill-opacity:1;fill-rule:nonzero"
     id="rect5898-1-8-2"
     width="3.5014603"
     height="5.640645"
     x="80.599777"
     y="1.2369263" />
  <rect
     style="fill:#9393ac;fill-opacity:1;fill-rule:nonzero"
     id="rect5898-8-2-2-9"
     width="3.5014603"
     height="5.640645"
     x="85.97702"
     y="1.1769192" />
  <rect
     style="fill:#9393ac;fill-opacity:1;fill-rule:nonzero"
     id="rect5898-8-2-2-9-9"
     width="3.5014603"
     height="5.640645"
     x="91.385529"
     y="1.2819312" />
  <rect
     style="fill:#9393ac;fill-opacity:1;fill-rule:nonzero"
     id="rect5898-83"
     width="3.5014603"
     height="5.640645"
     x="26.108301"
     y="49.249916" />
  <rect
     style="fill:#9393ac;fill-opacity:1;fill-rule:nonzero"
     id="rect5898-8-8"
     width="3.5014603"
     height="5.640645"
     x="31.485544"
     y="49.189911" />
  <rect
     style="fill:#9393ac;fill-opacity:1;fill-rule:nonzero"
     id="rect5898-1-6"
     width="3.5014603"
     height="5.640645"
     x="37.175419"
     y="49.099899" />
  <rect
     style="fill:#9393ac;fill-opacity:1;fill-rule:nonzero"
     id="rect5898-8-2-9"
     width="3.5014603"
     height="5.640645"
     x="42.552658"
     y="49.039886" />
  <rect
     style="fill:#9393ac;fill-opacity:1;fill-rule:nonzero"
     id="rect5898-14-8"
     width="3.5014603"
     height="5.640645"
     x="48.023689"
     y="49.054893" />
  <rect
     style="fill:#9393ac;fill-opacity:1;fill-rule:nonzero"
     id="rect5898-8-9-6"
     width="3.5014603"
     height="5.640645"
     x="53.400932"
     y="48.994888" />
  <rect
     style="fill:#9393ac;fill-opacity:1;fill-rule:nonzero"
     id="rect5898-1-8-6"
     width="3.5014603"
     height="5.640645"
     x="59.090805"
     y="48.904877" />
  <rect
     style="fill:#9393ac;fill-opacity:1;fill-rule:nonzero"
     id="rect5898-8-2-2-2"
     width="3.5014603"
     height="5.640645"
     x="64.468048"
     y="48.844872" />
  <rect
     style="fill:#9393ac;fill-opacity:1;fill-rule:nonzero"
     id="rect5898-14-4-3"
     width="3.5014603"
     height="5.640645"
     x="69.532661"
     y="49.054893" />
  <rect
     style="fill:#9393ac;fill-opacity:1;fill-rule:nonzero"
     id="rect5898-8-9-5-8"
     width="3.5014603"
     height="5.640645"
     x="74.909904"
     y="48.994888" />
  <rect
     style="fill:#9393ac;fill-opacity:1;fill-rule:nonzero"
     id="rect5898-1-8-2-2"
     width="3.5014603"
     height="5.640645"
     x="80.599777"
     y="48.904877" />
  <rect
     style="fill:#9393ac;fill-opacity:1;fill-rule:nonzero"
     id="rect5898-8-2-2-9-6"
     width="3.5014603"
     height="5.640645"
     x="85.97702"
     y="48.844872" />
  <rect
     style="fill:#9393ac;fill-opacity:1;fill-rule:nonzero"
     id="rect5898-8-2-2-9-9-2"
     width="3.5014603"
     height="5.640645"
     x="91.385529"
     y="48.949883" />
  <rect
     style="fill:#9393ac;fill-opacity:1;fill-rule:nonzero"
     id="rect5898-8-9-6-7"
     width="3.3603852"
     height="5.8774495"
     x="-48.278267"
     y="97.54129"
     transform="matrix(-0.00287454,-0.99999587,0.9999965,-0.00264757,0,0)" />
  <rect
     style="fill:#9393ac;fill-opacity:1;fill-rule:nonzero"
     id="rect5898-1-8-6-5"
     width="3.3603852"
     height="5.8774495"
     x="-42.817646"
     y="97.447502"
     transform="matrix(-0.00287454,-0.99999587,0.9999965,-0.00264757,0,0)" />
  <rect
     style="fill:#9393ac;fill-opacity:1;fill-rule:nonzero"
     id="rect5898-8-2-2-2-7"
     width="3.3603852"
     height="5.8774495"
     x="-37.657051"
     y="97.384979"
     transform="matrix(-0.00287454,-0.99999587,0.9999965,-0.00264757,0,0)" />
  <rect
     style="fill:#9393ac;fill-opacity:1;fill-rule:nonzero"
     id="rect5898-14-4-3-8"
     width="3.3603852"
     height="5.8774495"
     x="-32.796494"
     y="97.603821"
     transform="matrix(-0.00287454,-0.99999587,0.9999965,-0.00264757,0,0)" />
  <rect
     style="fill:#9393ac;fill-opacity:1;fill-rule:nonzero"
     id="rect5898-8-9-5-8-2"
     width="3.3603852"
     height="5.8774495"
     x="-27.635902"
     y="97.54129"
     transform="matrix(-0.00287454,-0.99999587,0.9999965,-0.00264757,0,0)" />
  <rect
     style="fill:#9393ac;fill-opacity:1;fill-rule:nonzero"
     id="rect5898-1-8-2-2-7"
     width="3.3603852"
     height="5.8774495"
     x="-22.175276"
     y="97.447502"
     transform="matrix(-0.00287454,-0.99999587,0.9999965,-0.00264757,0,0)" />
  <rect
     style="fill:#9393ac;fill-opacity:1;fill-rule:nonzero"
     id="rect5898-8-2-2-9-6-8"
     width="3.3603852"
     height="5.8774495"
     x="-17.014687"
     y="97.384979"
     transform="matrix(-0.00287454,-0.99999587,0.9999965,-0.00264757,0,0)" />
  <rect
     style="fill:#9393ac;fill-opacity:1;fill-rule:nonzero"
     id="rect5898-8-2-2-9-9-2-0"
     width="3.3603852"
     height="5.8774495"
     x="-11.824133"
     y="97.4944"
     transform="matrix(-0.00287454,-0.99999587,0.9999965,-0.00264757,0,0)" />
  <rect
     style="fill:#333333;fill-opacity:1;fill-rule:nonzero"
     id="rect3085-1"
     width="20.008345"
     height="25.922962"
     x="74.878639"
     y="10.823021" />
  <rect
     style="fill:#0d9557;fill-opacity:1;fill-rule:nonzero"
     id="rect5813-0-6-8"
     width="13.630685"
     height="2.4002743"
     x="4.0365944"
     y="41.81086" />
</svg>
